<svg width="41" height="32" viewBox="0 0 41 32" fill="none" xmlns="http://www.w3.org/2000/svg">
<path d="M39.9246 6.90198C38.6506 6.97877 37.3919 7.21981 36.1796 7.61911C34.9471 7.96503 33.7473 8.41829 32.594 8.97369C31.4296 9.4727 30.3322 10.1151 29.327 10.886C28.3008 11.5949 27.3408 12.3949 26.4585 13.2765C25.5696 14.2024 24.7443 15.1873 23.9884 16.2247C23.2751 17.2675 22.6361 18.3591 22.076 19.4916C21.5552 20.6595 21.1029 21.8568 20.7215 23.0773C20.4058 24.3097 20.1663 25.5604 20.0043 26.8223C19.9199 25.5492 19.6791 24.2914 19.2872 23.0773C18.9413 21.8448 18.488 20.645 17.9326 19.4916C17.4336 18.3273 16.7912 17.2298 16.0203 16.2247C15.2919 15.1884 14.4932 14.2033 13.6298 13.2765C12.703 12.4131 11.7179 11.6144 10.6816 10.886C9.67647 10.1151 8.579 9.4727 7.41468 8.97369C6.27257 8.39246 5.07016 7.93822 3.82902 7.61911C2.61677 7.21981 1.35801 6.97877 0.0840036 6.90198C0.0840036 7.61911 0.0043223 8.33624 0.0043223 9.05337C-0.0264515 10.5245 0.107179 11.9944 0.402729 13.4358C0.551182 14.1622 0.737357 14.8803 0.960498 15.5872C1.12782 16.3006 1.36813 16.9948 1.67763 17.659C1.93625 18.3372 2.22878 19.0021 2.55412 19.651L3.66966 21.5633L5.02424 23.3163L6.45851 24.9099L8.05213 26.4239L9.80512 27.6988C10.4426 28.1769 11.08 28.4956 11.7175 28.894L13.7095 29.8502L15.7015 30.5673L17.8529 31.1251L20.0043 31.4438L22.1557 31.1251L24.3071 30.5673L26.3788 29.8502L28.3709 28.894L30.2035 27.6988L31.9565 26.4239C32.5257 25.9608 33.0584 25.4546 33.5501 24.9099C34.0948 24.4182 34.6009 23.8855 35.0641 23.3163L36.339 21.5633C36.7374 20.9259 37.1358 20.2884 37.4545 19.651L38.4107 17.659L39.1278 15.5872C39.3251 14.8791 39.4847 14.1609 39.6059 13.4358C39.7511 12.725 39.8575 12.0068 39.9246 11.2844C40.0321 10.5459 40.0588 9.79775 40.0043 9.05337C40.0175 8.33532 39.9909 7.61709 39.9246 6.90198Z" fill="url(#paint0_linear_4128_559)"/>
<path d="M25.0244 5.54736C25.0405 5.8946 25.0138 6.24252 24.9447 6.58321C24.875 6.93869 24.7681 7.28588 24.626 7.61907L24.1479 8.49556L23.5104 9.29237L22.7136 9.92982L21.7574 10.4079L20.8013 10.7266H18.7295L17.6937 10.4079L16.8172 9.92982L16.0204 9.29237L15.3033 8.49556L14.8252 7.61907L14.5064 6.58321C14.5064 6.26449 14.4268 5.94576 14.4268 5.54736C14.4268 5.14895 14.5064 4.90991 14.5064 4.59118C14.5064 4.27246 14.7455 3.87405 14.8252 3.55532L15.3033 2.67883L16.0204 1.88202C16.249 1.62708 16.5183 1.41169 16.8172 1.24457L17.6937 0.766479L18.7295 0.447754H20.8013L21.7574 0.766479L22.7136 1.24457L23.5104 1.88202L24.1479 2.67883L24.626 3.55532C24.7789 3.88448 24.8861 4.23299 24.9447 4.59118C25.0105 4.90542 25.0372 5.22657 25.0244 5.54736Z" fill="#1C4532"/>
<defs>
<linearGradient id="paint0_linear_4128_559" x1="6.50516" y1="10.5831" x2="23.3076" y2="35.6689" gradientUnits="userSpaceOnUse">
<stop stop-color="#1C4532"/>
<stop offset="1" stop-color="#2A6B4D"/>
</linearGradient>
</defs>
</svg>
